<svg version="1.1" preserveAspectRatio="none" xmlns="http://www.w3.org/2000/svg" width="500" height="500" viewBox="0 0 500 500"><rect width="100%" height="100%" fill="#232128" fill-opacity="1"/><svg viewBox="65.7924 457.8863 657.4374 226.4" width="333" height="114.67434009686701" x="83.5px" y="192.6628px" xmlns="http://www.w3.org/2000/svg" xmlns:xlink="http://www.w3.org/1999/xlink" preserveAspectRatio="none"><defs></defs><style>.companyName {fill:#A5AEAD;fill-opacity:1;}.icon1 {fill:#A4747F;fill-opacity:1;}.icon2 {fill:#8CA6A2;fill-opacity:1;}.icon3 {fill:#5E718C;fill-opacity:1;}.icon3-str {stroke:#5E718C;stroke-opacity:1;}.text {fill:#A5AEAD;fill-opacity:1;}</style><g opacity="1" transform="rotate(0 65.7924 457.8863)">
<svg width="262.4928" height="226.4" x="65.7924" y="457.8863" version="1.1" preserveAspectRatio="none" viewBox="20 31.000001907348633 160 138">
  <g transform="matrix(1 0 0 1 0 0)"><g><path d="M87.3 169c-2.1 0-3.9-1.7-3.9-3.9V34.9c0-2.2 1.7-3.9 3.9-3.9s3.9 1.7 3.9 3.9v130.2c0 2.2-1.8 3.9-3.9 3.9z" data-color="1" class="icon1"></path><path d="M23.9 86.1c-2.1 0-3.9 1.7-3.9 3.9v20c0 2.2 1.7 3.9 3.9 3.9s3.9-1.7 3.9-3.9V90c-.1-2.2-1.8-3.9-3.9-3.9z" data-color="2" class="icon2"></path><path d="M176.1 87.7c-2.1 0-3.9 1.7-3.9 3.9v16.7c0 2.2 1.7 3.9 3.9 3.9s3.9-1.7 3.9-3.9V91.6c0-2.1-1.7-3.9-3.9-3.9z" data-color="2" class="icon2"></path><path d="M36.6 69.1c-2.1 0-3.9 1.7-3.9 3.9v54c0 2.2 1.7 3.9 3.9 3.9s3.9-1.7 3.9-3.9V73c-.1-2.1-1.8-3.9-3.9-3.9z" data-color="2" class="icon2"></path><path d="M49.2 75.7c-2.1 0-3.9 1.7-3.9 3.9v40.9c0 2.2 1.7 3.9 3.9 3.9s3.9-1.7 3.9-3.9V79.6c0-2.2-1.7-3.9-3.9-3.9z" data-color="2" class="icon2"></path><path d="M61.9 57.7c-2.1 0-3.9 1.7-3.9 3.9v76.9c0 2.2 1.7 3.9 3.9 3.9 2.1 0 3.9-1.7 3.9-3.9v-77c0-2.1-1.7-3.8-3.9-3.8z" data-color="2" class="icon2"></path><path d="M74.6 39.9c-2.1 0-3.9 1.7-3.9 3.9v112.4c0 2.2 1.7 3.9 3.9 3.9s3.9-1.7 3.9-3.9V43.8c0-2.2-1.7-3.9-3.9-3.9z" data-color="2" class="icon2"></path><path d="M100 52.7c-2.1 0-3.9 1.7-3.9 3.9v86.7c0 2.2 1.7 3.9 3.9 3.9s3.9-1.7 3.9-3.9V56.6c0-2.1-1.8-3.9-3.9-3.9z" data-color="2" class="icon2"></path><path d="M112.7 73.4c-2.1 0-3.9 1.7-3.9 3.9v45.5c0 2.2 1.7 3.9 3.9 3.9s3.9-1.7 3.9-3.9V77.3c0-2.2-1.8-3.9-3.9-3.9z" data-color="2" class="icon2"></path><path d="M125.4 86.1c-2.1 0-3.9 1.7-3.9 3.9v20c0 2.2 1.7 3.9 3.9 3.9s3.9-1.7 3.9-3.9V90c-.1-2.2-1.8-3.9-3.9-3.9z" data-color="2" class="icon2"></path><path d="M163.4 81.1c-2.1 0-3.9 1.7-3.9 3.9v25.3c0 1.6-1.1 2.9-2.5 2.9-1.2 0-2.3-1.1-2.5-2.5V74.9c0-2.2-1.7-3.9-3.9-3.9s-3.9 1.7-3.9 3.9v21.7c-.1 1.5-1.2 2.8-2.5 2.8-1.4 0-2.4-1.3-2.5-2.8V83.1c0-2.2-1.7-3.9-3.9-3.9s-3.9 1.7-3.9 3.9v33.8c0 2.2 1.7 3.9 3.9 3.9s3.9-1.7 3.9-3.9v-5.7c0-1.6 1.1-2.8 2.5-2.8 1.3 0 2.4 1.2 2.5 2.8v28.1c0 2.2 1.7 3.9 3.9 3.9s3.9-1.7 3.9-3.9v-14.5c.2-1.4 1.2-2.5 2.5-2.5 1.4 0 2.5 1.3 2.5 2.9v6.3c0 2.2 1.7 3.9 3.9 3.9s3.9-1.7 3.9-3.9V85c0-2.1-1.7-3.9-3.9-3.9z" data-color="2" class="icon2"></path><path d="M166.7 144.7c0 2.2-1.8 3.9-3.9 3.9-2.2 0-3.9-1.8-3.9-3.9 0-2.2 1.8-3.9 3.9-3.9 2.1-.1 3.9 1.7 3.9 3.9z" data-color="2" class="icon2"></path></g></g>
</svg>
</g><g opacity="1" transform="rotate(0 354.2852 627.8863)">
<svg width="271.7449" height="26.4" x="354.2852" y="627.8863" version="1.1" preserveAspectRatio="none" viewBox="3.96 -29.68 387.44000000000005 37.64">
  <g transform="matrix(1 0 0 1 0 0)" class="text"><path id="id-6izo4zJp16" d="M6.68-16.92Q7.68-19.04 9.66-20.12Q11.64-21.20 14.56-21.20L14.56-21.20L14.56-18.44L13.88-18.48Q10.56-18.48 8.68-16.44Q6.80-14.40 6.80-10.72L6.80-10.72L6.80 0L3.96 0L3.96-21.04L6.68-21.04L6.68-16.92Z M41.84-10.52L41.80-9.64L24.20-9.64Q24.44-6.36 26.72-4.34Q29-2.32 32.48-2.32L32.48-2.32Q34.44-2.32 36.08-3.02Q37.72-3.72 38.92-5.08L38.92-5.08L40.52-3.24Q39.12-1.56 37.02-0.68Q34.92 0.20 32.40 0.20L32.40 0.20Q29.16 0.20 26.66-1.18Q24.16-2.56 22.76-5Q21.36-7.44 21.36-10.52L21.36-10.52Q21.36-13.60 22.70-16.04Q24.04-18.48 26.38-19.84Q28.72-21.20 31.64-21.20L31.64-21.20Q34.56-21.20 36.88-19.84Q39.20-18.48 40.52-16.06Q41.84-13.64 41.84-10.52L41.84-10.52ZM31.64-18.76Q28.60-18.76 26.54-16.82Q24.48-14.88 24.20-11.76L24.20-11.76L39.12-11.76Q38.84-14.88 36.78-16.82Q34.72-18.76 31.64-18.76L31.64-18.76Z M58.40-21.20Q62.52-21.20 64.72-19.14Q66.92-17.08 66.92-13.04L66.92-13.04L66.92 0L64.20 0L64.20-3.28Q63.24-1.64 61.38-0.72Q59.52 0.20 56.96 0.20L56.96 0.20Q53.44 0.20 51.36-1.48Q49.28-3.16 49.28-5.92L49.28-5.92Q49.28-8.60 51.22-10.24Q53.16-11.88 57.40-11.88L57.40-11.88L64.08-11.88L64.08-13.16Q64.08-15.88 62.56-17.30Q61.04-18.72 58.12-18.72L58.12-18.72Q56.12-18.72 54.28-18.06Q52.44-17.40 51.12-16.24L51.12-16.24L49.84-18.36Q51.44-19.72 53.68-20.46Q55.92-21.20 58.40-21.20L58.40-21.20ZM57.40-2.04Q59.80-2.04 61.52-3.14Q63.24-4.24 64.08-6.32L64.08-6.32L64.08-9.76L57.48-9.76Q52.08-9.76 52.08-6L52.08-6Q52.08-4.16 53.48-3.10Q54.88-2.04 57.40-2.04L57.40-2.04Z M95.08-29.68L97.92-29.68L97.92 0L95.20 0L95.20-4.16Q93.92-2.04 91.82-0.92Q89.72 0.20 87.08 0.20L87.08 0.20Q84.12 0.20 81.72-1.16Q79.32-2.52 77.96-4.96Q76.60-7.40 76.60-10.52L76.60-10.52Q76.60-13.64 77.96-16.08Q79.32-18.52 81.72-19.86Q84.12-21.20 87.08-21.20L87.08-21.20Q89.64-21.20 91.70-20.14Q93.76-19.08 95.08-17.04L95.08-17.04L95.08-29.68ZM87.32-2.32Q89.52-2.32 91.30-3.34Q93.08-4.36 94.10-6.24Q95.12-8.12 95.12-10.52L95.12-10.52Q95.12-12.92 94.10-14.80Q93.08-16.68 91.30-17.70Q89.52-18.72 87.32-18.72L87.32-18.72Q85.08-18.72 83.30-17.70Q81.52-16.68 80.50-14.80Q79.48-12.92 79.48-10.52L79.48-10.52Q79.48-8.12 80.50-6.24Q81.52-4.36 83.30-3.34Q85.08-2.32 87.32-2.32L87.32-2.32Z M109.84 0L109.84-21.04L112.68-21.04L112.68 0L109.84 0ZM111.28-25.64Q110.40-25.64 109.80-26.24Q109.20-26.84 109.20-27.68L109.20-27.68Q109.20-28.48 109.80-29.08Q110.40-29.68 111.28-29.68L111.28-29.68Q112.16-29.68 112.76-29.10Q113.36-28.52 113.36-27.72L113.36-27.72Q113.36-26.84 112.76-26.24Q112.16-25.64 111.28-25.64L111.28-25.64Z M135.32-21.20Q139.28-21.20 141.62-18.90Q143.96-16.60 143.96-12.20L143.96-12.20L143.96 0L141.12 0L141.12-11.92Q141.12-15.20 139.48-16.92Q137.84-18.64 134.80-18.64L134.80-18.64Q131.40-18.64 129.42-16.62Q127.44-14.60 127.44-11.04L127.44-11.04L127.44 0L124.60 0L124.60-21.04L127.32-21.04L127.32-17.16Q128.48-19.08 130.54-20.14Q132.60-21.20 135.32-21.20L135.32-21.20Z M172.52-21.04L175.24-21.04L175.24-2.56Q175.24 2.80 172.62 5.38Q170.00 7.96 164.72 7.96L164.72 7.96Q161.80 7.96 159.18 7.10Q156.56 6.24 154.92 4.72L154.92 4.72L156.36 2.56Q157.88 3.92 160.06 4.68Q162.24 5.44 164.64 5.44L164.64 5.44Q168.64 5.44 170.52 3.58Q172.40 1.72 172.40-2.20L172.40-2.20L172.40-4.88Q171.08-2.88 168.94-1.84Q166.80-0.80 164.20-0.80L164.20-0.80Q161.24-0.80 158.82-2.10Q156.40-3.40 155.02-5.74Q153.64-8.08 153.64-11.04L153.64-11.04Q153.64-14 155.02-16.32Q156.40-18.64 158.80-19.92Q161.20-21.20 164.20-21.20L164.20-21.20Q166.88-21.20 169.04-20.12Q171.20-19.04 172.52-17L172.52-17L172.52-21.04ZM164.48-3.32Q166.76-3.32 168.60-4.30Q170.44-5.28 171.46-7.04Q172.48-8.80 172.48-11.04L172.48-11.04Q172.48-13.28 171.46-15.02Q170.44-16.76 168.62-17.74Q166.80-18.72 164.48-18.72L164.48-18.72Q162.20-18.72 160.38-17.76Q158.56-16.80 157.54-15.04Q156.52-13.28 156.52-11.04L156.52-11.04Q156.52-8.80 157.54-7.04Q158.56-5.28 160.38-4.30Q162.20-3.32 164.48-3.32L164.48-3.32Z M201.68 0L201.68-21.04L204.52-21.04L204.52 0L201.68 0ZM203.12-25.64Q202.24-25.64 201.64-26.24Q201.04-26.84 201.04-27.68L201.04-27.68Q201.04-28.48 201.64-29.08Q202.24-29.68 203.12-29.68L203.12-29.68Q204.00-29.68 204.60-29.10Q205.20-28.52 205.20-27.72L205.20-27.72Q205.20-26.84 204.60-26.24Q204.00-25.64 203.12-25.64L203.12-25.64Z M222.08 0.20Q219.52 0.20 217.18-0.54Q214.84-1.28 213.52-2.40L213.52-2.40L214.80-4.64Q216.12-3.60 218.12-2.94Q220.12-2.28 222.28-2.28L222.28-2.28Q225.16-2.28 226.54-3.18Q227.92-4.08 227.92-5.72L227.92-5.72Q227.92-6.88 227.16-7.54Q226.40-8.20 225.24-8.54Q224.08-8.88 222.16-9.20L222.16-9.20Q219.60-9.68 218.04-10.18Q216.48-10.68 215.38-11.88Q214.28-13.08 214.28-15.20L214.28-15.20Q214.28-17.84 216.48-19.52Q218.68-21.20 222.60-21.20L222.60-21.20Q224.64-21.20 226.68-20.66Q228.72-20.12 230.04-19.24L230.04-19.24L228.80-16.96Q226.20-18.76 222.60-18.76L222.60-18.76Q219.88-18.76 218.50-17.80Q217.12-16.84 217.12-15.28L217.12-15.28Q217.12-14.08 217.90-13.36Q218.68-12.64 219.84-12.30Q221.00-11.96 223.04-11.60L223.04-11.60Q225.56-11.12 227.08-10.64Q228.60-10.16 229.68-9Q230.76-7.84 230.76-5.80L230.76-5.80Q230.76-3.04 228.46-1.42Q226.16 0.20 222.08 0.20L222.08 0.20Z M265.32-21.20Q268.28-21.20 270.68-19.86Q273.08-18.52 274.44-16.08Q275.80-13.64 275.80-10.52L275.80-10.52Q275.80-7.36 274.44-4.92Q273.08-2.48 270.70-1.14Q268.32 0.20 265.32 0.20L265.32 0.20Q262.76 0.20 260.70-0.86Q258.64-1.92 257.32-3.96L257.32-3.96L257.32 7.76L254.48 7.76L254.48-21.04L257.20-21.04L257.20-16.88Q258.48-18.96 260.58-20.08Q262.68-21.20 265.32-21.20L265.32-21.20ZM265.12-2.32Q267.32-2.32 269.12-3.34Q270.92-4.36 271.94-6.24Q272.96-8.12 272.96-10.52L272.96-10.52Q272.96-12.92 271.94-14.78Q270.92-16.64 269.12-17.68Q267.32-18.72 265.12-18.72L265.12-18.72Q262.88-18.72 261.10-17.68Q259.32-16.64 258.30-14.78Q257.28-12.92 257.28-10.52L257.28-10.52Q257.28-8.12 258.30-6.24Q259.32-4.36 261.10-3.34Q262.88-2.32 265.12-2.32L265.12-2.32Z M294.20 0.20Q291.16 0.20 288.72-1.18Q286.28-2.56 284.88-5Q283.48-7.44 283.48-10.52L283.48-10.52Q283.48-13.60 284.88-16.04Q286.28-18.48 288.72-19.84Q291.16-21.20 294.20-21.20L294.20-21.20Q297.24-21.20 299.68-19.84Q302.12-18.48 303.50-16.04Q304.88-13.60 304.88-10.52L304.88-10.52Q304.88-7.44 303.50-5Q302.12-2.56 299.68-1.18Q297.24 0.20 294.20 0.20L294.20 0.20ZM294.20-2.32Q296.44-2.32 298.22-3.34Q300-4.36 301-6.24Q302-8.12 302-10.52L302-10.52Q302-12.92 301-14.80Q300-16.68 298.22-17.70Q296.44-18.72 294.20-18.72L294.20-18.72Q291.96-18.72 290.18-17.70Q288.40-16.68 287.38-14.80Q286.36-12.92 286.36-10.52L286.36-10.52Q286.36-8.12 287.38-6.24Q288.40-4.36 290.18-3.34Q291.96-2.32 294.20-2.32L294.20-2.32Z M342.36-21.04L344.96-21.04L337.00 0L334.32 0L327.68-17.24L321.04 0L318.36 0L310.44-21.04L313.16-21.04L319.76-3.16L326.52-21.04L328.96-21.04L335.68-3.16L342.36-21.04Z M371.00-10.52L370.96-9.64L353.36-9.64Q353.60-6.36 355.88-4.34Q358.16-2.32 361.64-2.32L361.64-2.32Q363.60-2.32 365.24-3.02Q366.88-3.72 368.08-5.08L368.08-5.08L369.68-3.24Q368.28-1.56 366.18-0.68Q364.08 0.20 361.56 0.20L361.56 0.20Q358.32 0.20 355.82-1.18Q353.32-2.56 351.92-5Q350.52-7.44 350.52-10.52L350.52-10.52Q350.52-13.60 351.86-16.04Q353.20-18.48 355.54-19.84Q357.88-21.20 360.80-21.20L360.80-21.20Q363.72-21.20 366.04-19.84Q368.36-18.48 369.68-16.06Q371.00-13.64 371.00-10.52L371.00-10.52ZM360.80-18.76Q357.76-18.76 355.70-16.82Q353.64-14.88 353.36-11.76L353.36-11.76L368.28-11.76Q368.00-14.88 365.94-16.82Q363.88-18.76 360.80-18.76L360.80-18.76Z M383.52-16.92Q384.52-19.04 386.50-20.12Q388.48-21.20 391.40-21.20L391.40-21.20L391.40-18.44L390.72-18.48Q387.40-18.48 385.52-16.44Q383.64-14.40 383.64-10.72L383.64-10.72L383.64 0L380.80 0L380.80-21.04L383.52-21.04L383.52-16.92Z"/></g>
</svg>
</g><g opacity="1" transform="rotate(0 354.2852 487.8863)">
<svg width="368.9446" height="120" x="354.2852" y="487.8863" version="1.1" preserveAspectRatio="none" viewBox="0.918 -29.1406 91.03519999999999 29.6094">
  <g transform="matrix(1 0 0 1 0 0)" class="companyName"><path id="id-D6z1nYkh4" d="M8.42-5.66L8.42-5.66Q8.42-4.00 9.21-3.08Q10-2.15 11.39-2.15L11.39-2.15L12.29-2.15Q13.83-2.15 14.97-3.97Q16.11-5.80 16.11-8.48L16.11-8.48L16.11-9.79Q16.11-12.75 14.93-14.53Q13.75-16.31 12.03-16.31L12.03-16.31L11.70-16.31Q9.77-16.31 9.02-14.99Q8.28-13.67 8.28-9.47L8.28-9.47L8.28-9.08L8.30-8.89L8.30-7.93L8.32-7.73Q8.32-7.54 8.32-7.34L8.32-7.34L8.40-6.04Q8.42-5.84 8.42-5.66ZM4.94-0.16L4.94-0.16Q3.52-0.16 3.06-0.65Q2.60-1.15 2.60-1.86Q2.60-2.56 2.97-4.89Q3.34-7.23 3.34-8.11L3.34-8.11L3.36-8.57L3.36-10.49L3.38-11.45L3.38-14.82Q3.38-22.38 3.18-23.48Q2.99-24.57 2.23-25.18L2.23-25.18Q0.92-26.23 0.92-26.58L0.92-26.58Q0.92-27.40 2.46-27.81L2.46-27.81Q4.73-28.42 6.11-28.42L6.11-28.42L6.56-28.42Q8.01-28.42 8.30-27.27L8.30-27.27Q8.50-26.48 8.50-22.71Q8.50-18.95 8.59-18.52L8.59-18.52Q8.75-17.83 9.61-17.83L9.61-17.83Q9.61-17.83 10.12-18.01L10.12-18.01Q12.44-18.83 14.08-18.83L14.08-18.83Q17.62-18.83 19.69-16.20Q21.76-13.57 21.76-9.84L21.76-9.84L21.76-9.36Q21.76-7.36 20.94-5.45L20.94-5.45Q19.36-1.72 15.94-0.35L15.94-0.35Q14.08 0.39 12.30 0.39L12.30 0.39L11.84 0.39Q11.25 0.39 10.04 0.14Q8.83-0.12 7.58-0.12L7.58-0.12L7.15-0.16Q6.48-0.21 6.27-0.21L6.27-0.21L5.82-0.20Q5.23-0.16 4.94-0.16Z M34.41-16.74L34.41-16.74L34.04-16.74Q32.36-16.74 31.30-14.84Q30.23-12.95 30.23-10.31L30.23-10.31L30.23-9.22Q30.23-6.25 31.46-4.20Q32.70-2.15 34.41-2.15L34.41-2.15L34.79-2.15Q36.29-2.15 37.41-3.68Q38.54-5.21 38.54-7.77L38.54-7.77L38.57-8.18L38.59-9.00L38.59-9.22L38.57-9.43L38.57-9.84Q38.54-10.27 38.54-10.47L38.54-10.47Q38.54-13.07 37.30-14.90Q36.07-16.74 34.41-16.74ZM34.43-19.34L34.43-19.34L35.41-19.34Q37.15-19.34 38.98-18.52L38.98-18.52Q42.48-16.95 43.79-13.44L43.79-13.44Q44.45-11.62 44.45-9.73L44.45-9.73L44.45-9.38Q44.45-7.34 43.63-5.39Q42.81-3.44 41.43-2.15L41.43-2.15Q38.54 0.47 34.79 0.47L34.79 0.47Q34.49 0.47 34.20 0.45L34.20 0.45Q32.32 0.45 30.52-0.30Q28.71-1.05 27.56-2.30L27.56-2.30Q25.08-5.04 25.08-9.16L25.08-9.16L25.08-9.49L25.10-9.82Q25.12-11.64 25.78-13.42L25.78-13.42Q27.07-16.82 30.51-18.44L30.51-18.44Q32.44-19.34 34.43-19.34Z M56.93-16.74L56.93-16.74L56.56-16.74Q54.88-16.74 53.82-14.84Q52.75-12.95 52.75-10.31L52.75-10.31L52.75-9.22Q52.75-6.25 53.98-4.20Q55.21-2.15 56.93-2.15L56.93-2.15L57.30-2.15Q58.81-2.15 59.93-3.68Q61.05-5.21 61.05-7.77L61.05-7.77L61.09-8.18L61.11-9.00L61.11-9.22L61.09-9.43L61.09-9.84Q61.05-10.27 61.05-10.47L61.05-10.47Q61.05-13.07 59.82-14.90Q58.59-16.74 56.93-16.74ZM56.95-19.34L56.95-19.34L57.93-19.34Q59.67-19.34 61.50-18.52L61.50-18.52Q65-16.95 66.31-13.44L66.31-13.44Q66.97-11.62 66.97-9.73L66.97-9.73L66.97-9.38Q66.97-7.34 66.15-5.39Q65.33-3.44 63.95-2.15L63.95-2.15Q61.05 0.47 57.30 0.47L57.30 0.47Q57.01 0.47 56.72 0.45L56.72 0.45Q54.84 0.45 53.04-0.30Q51.23-1.05 50.08-2.30L50.08-2.30Q47.60-5.04 47.60-9.16L47.60-9.16L47.60-9.49L47.62-9.82Q47.64-11.64 48.30-13.42L48.30-13.42Q49.59-16.82 53.03-18.44L53.03-18.44Q54.96-19.34 56.95-19.34Z M86.76-18.77L86.76-18.77Q90.59-18.77 90.61-17.66L90.61-17.66Q90.61-17.01 88.16-15.55L88.16-15.55Q83.28-12.60 83.28-10.76L83.28-10.76Q83.28-10.10 87.27-5.55L87.27-5.55Q88.65-3.96 90.30-2.71Q91.95-1.46 91.95-0.97Q91.95-0.47 91.47-0.22Q91.00 0.02 87.97 0.02L87.97 0.02L87.21 0.02Q84.28 0.02 83.32-0.94L83.32-0.94Q82.75-1.50 82.49-2.90Q82.23-4.30 81.60-5.27L81.60-5.27Q80.18-7.52 78.89-7.52L78.89-7.52Q78.09-7.52 78.09-5.63Q78.09-3.73 78.89-2.17L78.89-2.17Q79.24-1.48 79.24-1.33L79.24-1.33Q79.24-0.47 77.95-0.16L77.95-0.16Q77.29 0 74.81 0Q72.34 0 71.58-0.20L71.58-0.20Q70.45-0.49 70.45-1.21L70.45-1.21Q70.45-1.62 71.20-2.86Q71.95-4.10 72.07-4.77L72.07-4.77Q72.36-6.45 72.36-15.29Q72.36-24.14 72.13-24.76Q71.89-25.37 70.75-25.98Q69.61-26.58 69.61-27.31Q69.61-28.05 70.66-28.42L70.66-28.42Q72.68-29.14 75.08-29.14L75.08-29.14L75.76-29.14Q76.99-29.14 77.34-27.71L77.34-27.71Q77.60-26.70 77.60-20.03Q77.60-13.36 77.66-12.93L77.66-12.93Q77.83-11.56 78.48-11.56L78.48-11.56Q79.36-11.56 81.50-13.95L81.50-13.95Q82.83-15.41 82.83-16.45L82.83-16.45L82.56-17.62Q82.56-18.28 83.37-18.53Q84.18-18.77 86.76-18.77Z"/></g>
</svg>
</g></svg></svg>