<svg version="1.1" preserveAspectRatio="none" xmlns="http://www.w3.org/2000/svg" width="500" height="500" viewBox="0 0 500 500"><rect width="100%" height="100%" fill="#E74C32" fill-opacity="1"/><svg viewBox="180.2976 534.3871 364.9362 315.0799" width="333" height="287.50671131008653" x="83.5px" y="106.2466px" xmlns="http://www.w3.org/2000/svg" xmlns:xlink="http://www.w3.org/1999/xlink" preserveAspectRatio="none"><defs></defs><style>.companyName {fill:#EFEFEF;fill-opacity:1;}.icon1 {fill:#281817;fill-opacity:1;}.icon2 {fill:#EFEFEF;fill-opacity:1;}.icon3 {fill:#DDAC77;fill-opacity:1;}.icon3-str {stroke:#DDAC77;stroke-opacity:1;}.text {fill:#EFEFEF;fill-opacity:1;}</style><g opacity="1" transform="rotate(0 233.5322 821.867)">
<svg width="258.467" height="27.6" x="233.5322" y="821.867" version="1.1" preserveAspectRatio="none" viewBox="2.6 -28 339.32 36.239999999999995">
  <g transform="matrix(1 0 0 1 0 0)" class="text"><path id="id-6izo4zJp16" d="M12.96-20.32L13.16-20.32L13.16-17.32L12.80-17.32Q9.56-17.32 7.52-14.72L7.52-14.72Q5.60-12.24 5.60-8.80L5.60-8.80L5.60 0L2.60 0L2.60-20L5.60-20L5.60-15.08Q6.56-18.20 9.76-19.68L9.76-19.68Q11.08-20.32 12.96-20.32L12.96-20.32Z M28-2.40L28-2.40Q32.04-2.40 33.80-5.76L33.80-5.76L37.08-5.76Q36.04-3.04 33.78-1.36Q31.52 0.32 27.96 0.32L27.96 0.32Q23.44 0.32 20.60-2.68L20.60-2.68Q17.84-5.60 17.84-10L17.84-10Q17.84-14.44 20.48-17.32L20.48-17.32Q23.28-20.32 27.76-20.32L27.76-20.32Q32.24-20.32 35.04-17.32L35.04-17.32Q37.68-14.44 37.68-10L37.68-10L37.68-8.80L20.92-8.80Q21.24-6.04 23.12-4.24L23.12-4.24Q25.04-2.40 28-2.40ZM27.76-17.60L27.76-17.60Q25-17.60 23.12-15.88L23.12-15.88Q21.36-14.24 20.96-11.60L20.96-11.60L34.56-11.60Q34.16-14.24 32.40-15.88L32.40-15.88Q30.52-17.60 27.76-17.60Z M60.16 0L60.16-3.20Q57.76 0.32 53.00 0.32L53.00 0.32Q48.68 0.32 45.96-2.68L45.96-2.68Q43.32-5.64 43.32-10L43.32-10Q43.32-14.36 45.96-17.32L45.96-17.32Q48.68-20.32 53.20-20.32Q57.72-20.32 60.16-16.76L60.16-16.76L60.16-20L63.16-20L63.16 0L60.16 0ZM53.40-2.40L53.40-2.40Q56.64-2.40 58.52-4.64L58.52-4.64Q60.32-6.76 60.32-10L60.32-10Q60.32-13.24 58.52-15.36L58.52-15.36Q56.64-17.60 53.40-17.60L53.40-17.60Q50.20-17.60 48.20-15.36L48.20-15.36Q46.32-13.24 46.32-10L46.32-10Q46.32-6.76 48.20-4.64L48.20-4.64Q50.20-2.40 53.40-2.40Z M87.16 0L87.16-3.20Q84.76 0.32 80.00 0.32L80.00 0.32Q75.68 0.32 72.96-2.68L72.96-2.68Q70.32-5.64 70.32-10L70.32-10Q70.32-14.36 72.96-17.32L72.96-17.32Q75.68-20.32 80.20-20.32Q84.72-20.32 87.16-16.76L87.16-16.76L87.16-28L90.16-28L90.16 0L87.16 0ZM80.40-2.40L80.40-2.40Q83.64-2.40 85.52-4.64L85.52-4.64Q87.32-6.76 87.32-10L87.32-10Q87.32-13.24 85.52-15.36L85.52-15.36Q83.64-17.60 80.40-17.60L80.40-17.60Q77.20-17.60 75.20-15.36L75.20-15.36Q73.32-13.24 73.32-10L73.32-10Q73.32-6.76 75.20-4.64L75.20-4.64Q77.20-2.40 80.40-2.40Z M98.56 0L98.56-20L101.56-20L101.56 0L98.56 0ZM98.44-27.28L101.68-27.28L101.68-23.36L98.44-23.36L98.44-27.28Z M109.96-20L112.96-20L112.96-16.88Q114.04-18.32 115.60-19.32Q117.16-20.32 119.16-20.32Q121.16-20.32 122.60-19.76Q124.04-19.20 125.12-18.08L125.12-18.08Q127.60-15.64 127.60-11.64L127.60-11.64L127.60 0L124.60 0L124.60-11.56Q124.60-14.32 123.04-15.96Q121.48-17.60 119.00-17.60L119.00-17.60Q116.48-17.60 114.72-15.92L114.72-15.92Q112.96-14.20 112.96-11.52L112.96-11.52L112.96 0L109.96 0L109.96-20Z M151.40-16.80L151.40-16.80L151.40-20L154.40-20L154.40-0.60Q154.40 3.72 151.94 5.98Q149.48 8.24 145.32 8.24Q141.16 8.24 138.82 6.64Q136.48 5.04 135.64 2.40L135.64 2.40L138.96 2.40Q140.24 5.52 144.80 5.52L144.80 5.52Q148.28 5.52 149.84 3.92Q151.40 2.32 151.40-0.80L151.40-0.80L151.40-3.56Q148.96 0 144.24 0L144.24 0Q139.92 0 137.20-2.96L137.20-2.96Q134.56-5.84 134.56-10.16L134.56-10.16Q134.56-14.48 137.20-17.36L137.20-17.36Q139.92-20.32 144.46-20.32Q149-20.32 151.40-16.80ZM144.64-2.72L144.64-2.72Q146.28-2.72 147.56-3.30Q148.84-3.88 149.76-4.88L149.76-4.88Q151.56-6.96 151.56-10.16L151.56-10.16Q151.56-13.36 149.76-15.44L149.76-15.44Q147.80-17.60 144.64-17.60L144.64-17.60Q141.40-17.60 139.44-15.44L139.44-15.44Q137.56-13.32 137.56-10.16L137.56-10.16Q137.56-7 139.44-4.88L139.44-4.88Q141.40-2.72 144.64-2.72Z M174.52 0L174.52-20L177.52-20L177.52 0L174.52 0ZM174.40-27.28L177.64-27.28L177.64-23.36L174.40-23.36L174.40-27.28Z M200.72-14.64L197.68-14.64Q197.28-17.76 192.66-17.76Q188.04-17.76 188.04-14.88L188.04-14.88Q188.04-13.68 189.02-13.06Q190.00-12.44 191.48-12.04Q192.96-11.64 194.70-11.30Q196.44-10.96 197.92-10.34Q199.40-9.72 200.38-8.64Q201.36-7.56 201.36-5.68L201.36-5.68Q201.36-2.76 199.16-1.22Q196.96 0.32 193.20 0.32L193.20 0.32Q189.20 0.32 186.84-1.68L186.84-1.68Q184.68-3.44 184.52-6.28L184.52-6.28L187.64-6.28Q187.92-3.52 190.76-2.56L190.76-2.56Q191.80-2.24 192.82-2.24Q193.84-2.24 194.72-2.36Q195.60-2.48 196.44-2.80L196.44-2.80Q198.36-3.56 198.36-5.40L198.36-5.40Q198.36-6.64 197.38-7.30Q196.40-7.96 194.92-8.38Q193.44-8.80 191.70-9.14Q189.96-9.48 188.48-10.08Q187.00-10.68 186.02-11.72Q185.04-12.76 185.04-14.60L185.04-14.60Q185.04-17.32 187.02-18.82Q189.00-20.32 192.88-20.32L192.88-20.32Q196.56-20.32 198.68-18.56L198.68-18.56Q200.44-17.08 200.72-14.64L200.72-14.64Z M223.12-20L223.12-16.80Q225.52-20.32 230.28-20.32L230.28-20.32Q234.60-20.32 237.28-17.32L237.28-17.32Q239.96-14.36 239.96-10L239.96-10Q239.96-5.64 237.28-2.68L237.28-2.68Q234.60 0.32 230.08 0.32Q225.56 0.32 223.12-3.24L223.12-3.24L223.12 7.92L220.12 7.92L220.12-20L223.12-20ZM229.88-17.60L229.88-17.60Q226.64-17.60 224.76-15.36L224.76-15.36Q222.96-13.24 222.96-10L222.96-10Q222.96-6.76 224.76-4.64L224.76-4.64Q226.64-2.40 229.88-2.40L229.88-2.40Q233.08-2.40 235.08-4.64L235.08-4.64Q236.96-6.76 236.96-10L236.96-10Q236.96-13.24 235.08-15.36L235.08-15.36Q233.08-17.60 229.88-17.60Z M255.76-20.32L255.76-20.32Q260.24-20.32 263.04-17.32L263.04-17.32Q265.68-14.44 265.68-10L265.68-10Q265.68-5.56 263.04-2.68L263.04-2.68Q260.24 0.32 255.76 0.32L255.76 0.32Q251.28 0.32 248.48-2.68L248.48-2.68Q245.84-5.56 245.84-10L245.84-10Q245.84-14.44 248.48-17.32L248.48-17.32Q251.28-20.32 255.76-20.32ZM255.76-2.40L255.76-2.40Q259.00-2.40 260.88-4.64L260.88-4.64Q262.68-6.76 262.68-10L262.68-10Q262.68-13.24 260.88-15.36L260.88-15.36Q259.00-17.60 255.76-17.60L255.76-17.60Q252.52-17.60 250.64-15.36L250.64-15.36Q248.84-13.24 248.84-10L248.84-10Q248.84-6.76 250.64-4.64L250.64-4.64Q252.52-2.40 255.76-2.40Z M290.16 0L285.16-15.96L280.16 0L276.72 0L270.44-20L273.64-20L278.44-3.72L283.52-20L286.80-20L291.88-3.72L296.68-20L299.88-20L293.60 0L290.16 0Z M314.80-2.40L314.80-2.40Q318.84-2.40 320.60-5.76L320.60-5.76L323.88-5.76Q322.84-3.04 320.58-1.36Q318.32 0.32 314.76 0.32L314.76 0.32Q310.24 0.32 307.40-2.68L307.40-2.68Q304.64-5.60 304.64-10L304.64-10Q304.64-14.44 307.28-17.32L307.28-17.32Q310.08-20.32 314.56-20.32L314.56-20.32Q319.04-20.32 321.84-17.32L321.84-17.32Q324.48-14.44 324.48-10L324.48-10L324.48-8.80L307.72-8.80Q308.04-6.04 309.92-4.24L309.92-4.24Q311.84-2.40 314.80-2.40ZM314.56-17.60L314.56-17.60Q311.80-17.60 309.92-15.88L309.92-15.88Q308.16-14.24 307.76-11.60L307.76-11.60L321.36-11.60Q320.96-14.24 319.20-15.88L319.20-15.88Q317.32-17.60 314.56-17.60Z M341.72-20.32L341.92-20.32L341.92-17.32L341.56-17.32Q338.32-17.32 336.28-14.72L336.28-14.72Q334.36-12.24 334.36-8.80L334.36-8.80L334.36 0L331.36 0L331.36-20L334.36-20L334.36-15.08Q335.32-18.20 338.52-19.68L338.52-19.68Q339.84-20.32 341.72-20.32L341.72-20.32Z"/></g>
</svg>
</g><g opacity="1" transform="rotate(0 180.2976 683.867)">
<svg width="364.9362" height="120" x="180.2976" y="683.867" version="1.1" preserveAspectRatio="none" viewBox="-1 -30.6 94.64 31.12">
  <g transform="matrix(1 0 0 1 0 0)" class="companyName"><path id="id-D6z1nYkh4" d="M10.12 0.48Q7.92 0.48 5.72 0.02Q3.52-0.44 1.64-1.20L1.64-1.20L1.64-23.68Q1.64-24.56 1.52-24.82Q1.40-25.08 0.88-25.40L0.88-25.40L-1-26.32L-0.80-29.36Q2.92-30 4.84-30.28Q6.76-30.56 7.84-30.60L7.84-30.60Q8.24-29.76 8.40-28.52L8.40-28.52L8.40-20.52Q10.68-21.32 12.92-21.32L12.92-21.32Q17.12-21.32 19.50-18.66Q21.88-16 21.88-11.04L21.88-11.04Q21.88-5.56 18.86-2.54Q15.84 0.48 10.12 0.48L10.12 0.48ZM11.52-4.68Q13.40-4.68 14.32-5.08L14.32-5.08Q14.64-6.16 14.84-7.60Q15.04-9.04 15.04-10.40L15.04-10.40Q15.04-16.56 10.92-16.56L10.92-16.56Q9.88-16.56 8.40-16.20L8.40-16.20L8.40-5.20Q9.44-4.68 11.52-4.68L11.52-4.68Z M34.76 0.52Q29.68 0.52 27.18-2.08Q24.68-4.68 24.68-10.04L24.68-10.04Q24.68-13.48 25.94-16.04Q27.20-18.60 29.56-19.96Q31.92-21.32 35.12-21.32L35.12-21.32Q45.48-21.32 45.48-10.60L45.48-10.60Q45.48-5.36 42.66-2.42Q39.84 0.52 34.76 0.52L34.76 0.52ZM35.40-4.16Q36.20-4.16 36.80-4.30Q37.40-4.44 38.08-4.76L38.08-4.76Q38.32-5.68 38.48-7.12Q38.64-8.56 38.64-9.88L38.64-9.88Q38.64-13.12 37.62-14.80Q36.60-16.48 34.60-16.48L34.60-16.48Q33.28-16.48 31.92-16.12L31.92-16.12Q31.64-15.52 31.48-14.18Q31.32-12.84 31.32-11.12L31.32-11.12Q31.32-7.76 32.38-5.96Q33.44-4.16 35.40-4.16L35.40-4.16Z M58.36 0.52Q53.28 0.52 50.78-2.08Q48.28-4.68 48.28-10.04L48.28-10.04Q48.28-13.48 49.54-16.04Q50.80-18.60 53.16-19.96Q55.52-21.32 58.72-21.32L58.72-21.32Q69.08-21.32 69.08-10.60L69.08-10.60Q69.08-5.36 66.26-2.42Q63.44 0.52 58.36 0.52L58.36 0.52ZM59-4.16Q59.80-4.16 60.40-4.30Q61-4.44 61.68-4.76L61.68-4.76Q61.92-5.68 62.08-7.12Q62.24-8.56 62.24-9.88L62.24-9.88Q62.24-13.12 61.22-14.80Q60.20-16.48 58.20-16.48L58.20-16.48Q56.88-16.48 55.52-16.12L55.52-16.12Q55.24-15.52 55.08-14.18Q54.92-12.84 54.92-11.12L54.92-11.12Q54.92-7.76 55.98-5.96Q57.04-4.16 59-4.16L59-4.16Z M70.32 0L70.12-3.80L72.60-4.52L72.60-23.68Q72.60-24.56 72.48-24.82Q72.36-25.08 71.84-25.40L71.84-25.40L70.08-26.32L70.20-29.36L71.44-29.56Q76.72-30.52 78.84-30.60L78.84-30.60Q79.20-29.64 79.36-28.52L79.36-28.52L79.36-12.24L83.80-16.56Q84-16.76 84-17L84-17Q84-17.20 83.88-17.32L83.88-17.32L82.76-18.72L83.20-20.92L92.08-20.92Q92.44-19.60 92.56-18.08L92.56-18.08L85.92-12.40L93.64-1.76L93.64 0L86.60 0L79.36-10.40L79.36-5.84Q79.36-5 79.48-4.72Q79.60-4.44 80.12-4.12L80.12-4.12L82.08-3L81.92 0L70.32 0Z"/></g>
</svg>
</g><g opacity="1" transform="rotate(0 308.0253 534.3871)">
<svg width="109.4808" height="109.4799" x="308.0253" y="534.3871" version="1.1" preserveAspectRatio="none" viewBox="8.332030296325684 8.332499504089355 83.33660125732422 83.33589172363281">
  <g transform="matrix(1 0 0 1 0 0)" class="icon1"><g><path d="m89.582 75h-2.082v-43.75c0-2.7617-1.0977-5.4141-3.0508-7.3672-1.9531-1.9531-4.6016-3.0508-7.3672-3.0508h-12.5v8.332h8.332l0.003907 0.003907c3.4453 0.007812 6.2383 2.8008 6.25 6.25v33.332c0 0.55078-0.22266 1.082-0.61328 1.4727-0.39063 0.39062-0.91797 0.60938-1.4727 0.60938h-54.164c-1.1523 0-2.0859-0.92969-2.0859-2.082v-33.332c0.011719-3.4492 2.8047-6.2422 6.25-6.25h8.332l0.003907-8.3359h-12.5c-5.7539 0-10.418 4.6641-10.418 10.418v43.75h-2.082c-1.1523 0-2.0859 0.93359-2.0859 2.082 0.003907 3.8672 1.543 7.5742 4.2773 10.309s6.4414 4.2734 10.309 4.2773h54.164c3.8672-0.003907 7.5742-1.543 10.309-4.2773s4.2734-6.4414 4.2773-10.309c0-0.55078-0.22266-1.082-0.61328-1.4727-0.39063-0.39062-0.91797-0.60938-1.4727-0.60938z"></path><path d="m48.52 61.895c0.82422 0.80859 2.1367 0.80859 2.9609 0l8.332-8.332c0.38281-0.39844 0.60156-0.92578 0.60547-1.4805v-33.332c0-5.7539-4.6641-10.418-10.418-10.418s-10.418 4.6641-10.418 10.418v33.332c0.003907 0.55469 0.22266 1.082 0.60547 1.4805zm-4.7695-36.895h4.168v22.918c0 1.1484 0.92969 2.082 2.082 2.082s2.082-0.93359 2.082-2.082v-22.918h4.168v26.23l-6.25 6.25-6.25-6.25z"></path></g></g>
</svg>
</g></svg></svg>