<svg version="1.1" preserveAspectRatio="none" xmlns="http://www.w3.org/2000/svg" width="500" height="500" viewBox="0 0 500 500"><rect width="100%" height="100%" fill="#010506" fill-opacity="1"/><svg viewBox="154.0803 514.3 542.1032 179.4" width="333" height="110.20078833698085" x="83.5px" y="194.8996px" xmlns="http://www.w3.org/2000/svg" xmlns:xlink="http://www.w3.org/1999/xlink" preserveAspectRatio="none"><defs></defs><style>.background {fill:#010506;fill-opacity:1;}.companyName {fill:#EEF8F7;fill-opacity:1;}.icon1 {fill:#E35F21;fill-opacity:1;}.icon2 {fill:#EEF8F7;fill-opacity:1;}.icon3 {fill:#FAAB05;fill-opacity:1;}.icon3-str {stroke:#FAAB05;stroke-opacity:1;}.shapeStroke-str {stroke:#E35F21;stroke-opacity:1;}.text {fill:#EEF8F7;fill-opacity:1;}</style><g opacity="1" transform="rotate(0 154.0803 514.3)">
<svg width="179.4" height="179.4" x="154.0803" y="514.3" version="1.1" preserveAspectRatio="none" viewBox="0 0 179.4 179.4">
  <defs><rect x="0" y="0" width="179.4" height="179.4" rx="150px" ry="150px" id="id-3WKIowxM31720752574738"></rect></defs><use class="icon1 shapeStroke-str" style="stroke-width:0;" xlink:href="#id-3WKIowxM31720752574738"></use>
</svg>
</g><g opacity="1" transform="rotate(0 180.9903 552.9832)">
<svg width="125.58" height="102.0337" x="180.9903" y="552.9832" version="1.1" preserveAspectRatio="none" viewBox="0.03125 9.484001159667969 100 81.25">
  <g transform="matrix(1 0 0 1 0 0)" class="background"><g><path d="m0.03125 90.734h100v-81.25h-100zm6.25-75h87.5v68.75h-87.5z"></path><path d="m40.121 65.625h19.758v3.125h-19.758z"></path><path d="m43.246 71.875h13.508v3.125h-13.508z"></path><path d="m40.121 25h19.758v21.875h-19.758z"></path><path d="m53.125 53.125c0 4.168-6.25 4.168-6.25 0s6.25-4.168 6.25 0"></path><path d="m66.781 65.625h19.758v3.125h-19.758z"></path><path d="m69.906 71.875h13.508v3.125h-13.508z"></path><path d="m66.781 25h19.758v21.875h-19.758z"></path><path d="m79.785 53.125c0 4.168-6.25 4.168-6.25 0s6.25-4.168 6.25 0"></path><path d="m13.461 65.625h19.758v3.125h-19.758z"></path><path d="m16.586 71.875h13.508v3.125h-13.508z"></path><path d="m13.461 25h19.758v21.875h-19.758z"></path><path d="m26.465 53.125c0 4.168-6.25 4.168-6.25 0s6.25-4.168 6.25 0"></path></g></g>
</svg>
</g><g opacity="1" transform="rotate(0 353.4803 651)">
<svg width="206.861" height="22" x="353.4803" y="651" version="1.1" preserveAspectRatio="none" viewBox="2.92 -30.64 389.28 41.400000000000006">
  <g transform="matrix(1 0 0 1 0 0)" class="text"><path id="id-6izo4zJp16" d="M6.56-17.52Q7.64-19.80 9.72-21.06Q11.80-22.32 14.68-22.32L14.68-22.32L14.68-18.36L13.56-18.36Q10.48-18.36 8.52-16.78Q6.56-15.20 6.56-11.56L6.56-11.56L6.56 0L2.92 0L2.92-21.96L6.56-21.96L6.56-17.52Z M42.48-12.20Q42.48-11.04 42.32-10.20L42.32-10.20L24.76-10.20Q24.88-6.44 26.90-4.56Q28.92-2.68 31.84-2.68L31.84-2.68Q34.48-2.68 36.26-4.02Q38.04-5.36 38.44-7.60L38.44-7.60L42.32-7.60Q41.92-5.32 40.54-3.52Q39.16-1.72 36.96-0.72Q34.76 0.28 32 0.28L32 0.28Q28.84 0.28 26.40-1.08Q23.96-2.44 22.58-4.98Q21.20-7.52 21.20-10.96L21.20-10.96Q21.20-14.40 22.58-16.96Q23.96-19.52 26.40-20.88Q28.84-22.24 32-22.24L32-22.24Q35.20-22.24 37.58-20.88Q39.96-19.52 41.22-17.24Q42.48-14.96 42.48-12.20L42.48-12.20ZM38.80-11.96Q38.92-14.40 38-16.04Q37.08-17.68 35.48-18.48Q33.88-19.28 32-19.28L32-19.28Q29-19.28 26.96-17.42Q24.92-15.56 24.76-11.96L24.76-11.96L38.80-11.96Z M60.24-22.24Q63.44-22.24 65.66-20.64Q67.88-19.04 68.76-16.36L68.76-16.36L68.76-21.96L72.40-21.96L72.40 0L68.76 0L68.76-5.60Q67.88-2.92 65.66-1.32Q63.44 0.28 60.24 0.28L60.24 0.28Q57.32 0.28 55.04-1.08Q52.76-2.44 51.46-4.98Q50.16-7.52 50.16-10.96L50.16-10.96Q50.16-14.40 51.46-16.96Q52.76-19.52 55.04-20.88Q57.32-22.24 60.24-22.24L60.24-22.24ZM61.28-19Q57.92-19 55.90-16.86Q53.88-14.72 53.88-10.96L53.88-10.96Q53.88-7.20 55.90-5.06Q57.92-2.92 61.28-2.92L61.28-2.92Q63.44-2.92 65.14-3.92Q66.84-4.92 67.80-6.74Q68.76-8.56 68.76-10.96L68.76-10.96Q68.76-13.36 67.80-15.20Q66.84-17.04 65.14-18.02Q63.44-19 61.28-19L61.28-19Z M91.20-22.24Q94.40-22.24 96.62-20.64Q98.84-19.04 99.72-16.36L99.72-16.36L99.72-29.60L103.36-29.60L103.36 0L99.72 0L99.72-5.60Q98.84-2.92 96.62-1.32Q94.40 0.28 91.20 0.28L91.20 0.28Q88.28 0.28 86-1.08Q83.72-2.44 82.42-4.98Q81.12-7.52 81.12-10.96L81.12-10.96Q81.12-14.40 82.42-16.96Q83.72-19.52 86-20.88Q88.28-22.24 91.20-22.24L91.20-22.24ZM92.24-19Q88.88-19 86.86-16.86Q84.84-14.72 84.84-10.96L84.84-10.96Q84.84-7.20 86.86-5.06Q88.88-2.92 92.24-2.92L92.24-2.92Q94.40-2.92 96.10-3.92Q97.80-4.92 98.76-6.74Q99.72-8.56 99.72-10.96L99.72-10.96Q99.72-13.36 98.76-15.20Q97.80-17.04 96.10-18.02Q94.40-19 92.24-19L92.24-19Z M112.52-28.40Q112.52-29.40 113.20-30.02Q113.88-30.64 115.00-30.64L115.00-30.64Q116.12-30.64 116.80-30.02Q117.48-29.40 117.48-28.40L117.48-28.40Q117.48-27.40 116.80-26.78Q116.12-26.16 115.00-26.16L115.00-26.16Q113.88-26.16 113.20-26.78Q112.52-27.40 112.52-28.40L112.52-28.40ZM113.16-21.96L116.80-21.96L116.80 0L113.16 0L113.16-21.96Z M138.20-22.32Q142.04-22.32 144.40-19.86Q146.76-17.40 146.76-12.76L146.76-12.76L146.76 0L143.12 0L143.12-12.44Q143.12-15.72 141.44-17.48Q139.76-19.24 136.88-19.24L136.88-19.24Q133.88-19.24 132.08-17.30Q130.28-15.36 130.28-11.64L130.28-11.64L130.28 0L126.64 0L126.64-21.96L130.28-21.96L130.28-16.76Q131.12-19.44 133.26-20.88Q135.40-22.32 138.20-22.32L138.20-22.32Z M165.36-22.24Q168.56-22.24 170.78-20.64Q173-19.04 173.88-16.36L173.88-16.36L173.88-21.96L177.52-21.96L177.52 0.36Q177.52 3.40 176.24 5.76Q174.96 8.12 172.64 9.44Q170.32 10.76 167.24 10.76L167.24 10.76Q162.80 10.76 160 8.62Q157.20 6.48 156.44 2.84L156.44 2.84L160.04 2.84Q160.68 5.04 162.46 6.30Q164.24 7.56 167.04 7.56L167.04 7.56Q170 7.56 171.94 5.66Q173.88 3.76 173.88 0.36L173.88 0.36L173.88-5.60Q173-2.92 170.78-1.32Q168.56 0.28 165.36 0.28L165.36 0.28Q162.44 0.28 160.16-1.08Q157.88-2.44 156.58-4.98Q155.28-7.52 155.28-10.96L155.28-10.96Q155.28-14.40 156.58-16.96Q157.88-19.52 160.16-20.88Q162.44-22.24 165.36-22.24L165.36-22.24ZM166.40-19Q163.04-19 161.02-16.86Q159-14.72 159-10.96L159-10.96Q159-7.20 161.02-5.06Q163.04-2.92 166.40-2.92L166.40-2.92Q168.56-2.92 170.26-3.92Q171.96-4.92 172.92-6.74Q173.88-8.56 173.88-10.96L173.88-10.96Q173.88-13.36 172.92-15.20Q171.96-17.04 170.26-18.02Q168.56-19 166.40-19L166.40-19Z M200.56-28.40Q200.56-29.40 201.24-30.02Q201.92-30.64 203.04-30.64L203.04-30.64Q204.16-30.64 204.84-30.02Q205.52-29.40 205.52-28.40L205.52-28.40Q205.52-27.40 204.84-26.78Q204.16-26.16 203.04-26.16L203.04-26.16Q201.92-26.16 201.24-26.78Q200.56-27.40 200.56-28.40L200.56-28.40ZM201.20-21.96L204.84-21.96L204.84 0L201.20 0L201.20-21.96Z M221.56-22.24Q225.28-22.24 227.54-20.30Q229.80-18.36 230.28-15.08L230.28-15.08L226.80-15.08Q226.56-17.04 225.18-18.30Q223.80-19.56 221.48-19.56L221.48-19.56Q219.52-19.56 218.42-18.62Q217.32-17.68 217.32-16.08L217.32-16.08Q217.32-14.88 218.06-14.14Q218.80-13.40 219.90-13.02Q221-12.64 222.92-12.20L222.92-12.20Q225.36-11.64 226.86-11.06Q228.36-10.48 229.42-9.20Q230.48-7.92 230.48-5.76L230.48-5.76Q230.48-3.08 228.46-1.40Q226.44 0.28 223.08 0.28L223.08 0.28Q219.16 0.28 216.68-1.60Q214.20-3.48 213.76-6.84L213.76-6.84L217.28-6.84Q217.48-4.84 219.02-3.60Q220.56-2.36 223.08-2.36L223.08-2.36Q224.96-2.36 226.02-3.32Q227.08-4.28 227.08-5.84L227.08-5.84Q227.08-7.12 226.32-7.88Q225.56-8.64 224.44-9.04Q223.32-9.44 221.36-9.88L221.36-9.88Q218.92-10.44 217.46-11Q216-11.56 214.98-12.78Q213.96-14 213.96-16.08L213.96-16.08Q213.96-18.84 216-20.54Q218.04-22.24 221.56-22.24L221.56-22.24Z M265.36-22.24Q268.28-22.24 270.56-20.88Q272.84-19.52 274.14-16.96Q275.44-14.40 275.44-10.96L275.44-10.96Q275.44-7.52 274.14-4.98Q272.84-2.44 270.56-1.08Q268.28 0.28 265.36 0.28L265.36 0.28Q262.16 0.28 259.94-1.34Q257.72-2.96 256.88-5.60L256.88-5.60L256.88 10.40L253.24 10.40L253.24-21.96L256.88-21.96L256.88-16.36Q257.72-19 259.94-20.62Q262.16-22.24 265.36-22.24L265.36-22.24ZM264.32-19Q262.20-19 260.48-18.02Q258.76-17.04 257.80-15.20Q256.84-13.36 256.84-10.96L256.84-10.96Q256.84-8.56 257.80-6.74Q258.76-4.92 260.48-3.92Q262.20-2.92 264.32-2.92L264.32-2.92Q267.72-2.92 269.74-5.06Q271.76-7.20 271.76-10.96L271.76-10.96Q271.76-14.72 269.74-16.86Q267.72-19 264.32-19L264.32-19Z M294.16-22.24Q297.32-22.24 299.82-20.88Q302.32-19.52 303.74-16.96Q305.16-14.40 305.16-10.96L305.16-10.96Q305.16-7.52 303.74-4.98Q302.32-2.44 299.82-1.08Q297.32 0.28 294.16 0.28L294.16 0.28Q291 0.28 288.50-1.08Q286-2.44 284.56-4.98Q283.12-7.52 283.12-10.96L283.12-10.96Q283.12-14.40 284.56-16.96Q286-19.52 288.50-20.88Q291-22.24 294.16-22.24L294.16-22.24ZM294.16-19.04Q292.20-19.04 290.54-18.16Q288.88-17.28 287.86-15.46Q286.84-13.64 286.84-10.96L286.84-10.96Q286.84-8.32 287.86-6.50Q288.88-4.68 290.54-3.80Q292.20-2.92 294.16-2.92L294.16-2.92Q296.12-2.92 297.78-3.80Q299.44-4.68 300.46-6.50Q301.48-8.32 301.48-10.96L301.48-10.96Q301.48-13.64 300.46-15.46Q299.44-17.28 297.78-18.16Q296.12-19.04 294.16-19.04L294.16-19.04Z M340.60-21.96L344.08-21.96L337.76 0L333.84 0L327.80-17.88L321.72 0L317.76 0L311.52-21.96L315.20-21.96L319.88-3.48L325.96-21.96L329.76-21.96L335.88-3.52L340.60-21.96Z M371.68-12.20Q371.68-11.04 371.52-10.20L371.52-10.20L353.96-10.20Q354.08-6.44 356.10-4.56Q358.12-2.68 361.04-2.68L361.04-2.68Q363.68-2.68 365.46-4.02Q367.24-5.36 367.64-7.60L367.64-7.60L371.52-7.60Q371.12-5.32 369.74-3.52Q368.36-1.72 366.16-0.72Q363.96 0.28 361.20 0.28L361.20 0.28Q358.04 0.28 355.60-1.08Q353.16-2.44 351.78-4.98Q350.40-7.52 350.40-10.96L350.40-10.96Q350.40-14.40 351.78-16.96Q353.16-19.52 355.60-20.88Q358.04-22.24 361.20-22.24L361.20-22.24Q364.40-22.24 366.78-20.88Q369.16-19.52 370.42-17.24Q371.68-14.96 371.68-12.20L371.68-12.20ZM368-11.96Q368.12-14.40 367.20-16.04Q366.28-17.68 364.68-18.48Q363.08-19.28 361.20-19.28L361.20-19.28Q358.20-19.28 356.16-17.42Q354.12-15.56 353.96-11.96L353.96-11.96L368-11.96Z M384.08-17.52Q385.16-19.80 387.24-21.06Q389.32-22.32 392.20-22.32L392.20-22.32L392.20-18.36L391.08-18.36Q388-18.36 386.04-16.78Q384.08-15.20 384.08-11.56L384.08-11.56L384.08 0L380.44 0L380.44-21.96L384.08-21.96L384.08-17.52Z"/></g>
</svg>
</g><g opacity="1" transform="rotate(0 353.4803 535)">
<svg width="342.7032" height="100" x="353.4803" y="535" version="1.1" preserveAspectRatio="none" viewBox="2.36 -29.6 102.4 29.88">
  <g transform="matrix(1 0 0 1 0 0)" class="companyName"><path id="id-D6z1nYkh4" d="M16.28-22.60Q19.04-22.60 21.22-21.22Q23.40-19.84 24.66-17.26Q25.92-14.68 25.92-11.16L25.92-11.16Q25.92-7.68 24.66-5.08Q23.40-2.48 21.22-1.10Q19.04 0.28 16.28 0.28L16.28 0.28Q13.72 0.28 11.88-0.88Q10.04-2.04 9.20-4.04L9.20-4.04L9.20 0L2.36 0L2.36-29.60L9.20-29.60L9.20-18.28Q10.04-20.28 11.88-21.44Q13.72-22.60 16.28-22.60L16.28-22.60ZM14.08-16.60Q11.92-16.60 10.54-15.14Q9.16-13.68 9.16-11.16L9.16-11.16Q9.16-8.68 10.54-7.20Q11.92-5.72 14.08-5.72L14.08-5.72Q16.28-5.72 17.62-7.16Q18.96-8.60 18.96-11.16L18.96-11.16Q18.96-13.72 17.62-15.16Q16.28-16.60 14.08-16.60L14.08-16.60Z M40.72-22.60Q44.04-22.60 46.66-21.22Q49.28-19.84 50.78-17.24Q52.28-14.64 52.28-11.16L52.28-11.16Q52.28-7.68 50.78-5.08Q49.28-2.48 46.66-1.10Q44.04 0.28 40.72 0.28L40.72 0.28Q37.40 0.28 34.76-1.10Q32.12-2.48 30.62-5.08Q29.12-7.68 29.12-11.16L29.12-11.16Q29.12-14.64 30.62-17.24Q32.12-19.84 34.76-21.22Q37.40-22.60 40.72-22.60L40.72-22.60ZM40.72-16.68Q38.76-16.68 37.42-15.26Q36.08-13.84 36.08-11.16L36.08-11.16Q36.08-8.48 37.42-7.08Q38.76-5.68 40.72-5.68L40.72-5.68Q42.68-5.68 44-7.08Q45.32-8.48 45.32-11.16L45.32-11.16Q45.32-13.84 44-15.26Q42.68-16.68 40.72-16.68L40.72-16.68Z M67.08-22.60Q70.40-22.60 73.02-21.22Q75.64-19.84 77.14-17.24Q78.64-14.64 78.64-11.16L78.64-11.16Q78.64-7.68 77.14-5.08Q75.64-2.48 73.02-1.10Q70.40 0.28 67.08 0.28L67.08 0.28Q63.76 0.28 61.12-1.10Q58.48-2.48 56.98-5.08Q55.48-7.68 55.48-11.16L55.48-11.16Q55.48-14.64 56.98-17.24Q58.48-19.84 61.12-21.22Q63.76-22.60 67.08-22.60L67.08-22.60ZM67.08-16.68Q65.12-16.68 63.78-15.26Q62.44-13.84 62.44-11.16L62.44-11.16Q62.44-8.48 63.78-7.08Q65.12-5.68 67.08-5.68L67.08-5.68Q69.04-5.68 70.36-7.08Q71.68-8.48 71.68-11.16L71.68-11.16Q71.68-13.84 70.36-15.26Q69.04-16.68 67.08-16.68L67.08-16.68Z M104.76 0L96.52 0L89.84-9.48L89.84 0L83 0L83-29.60L89.84-29.60L89.84-13.36L96.52-22.32L104.56-22.32L95.56-11.16L104.76 0Z"/></g>
</svg>
</g></svg></svg>