<svg version="1.1" preserveAspectRatio="none" xmlns="http://www.w3.org/2000/svg" width="500" height="500" viewBox="0 0 500 500"><rect width="100%" height="100%" fill="#FFA569" fill-opacity="1"/><svg viewBox="2014.7047 1242.8904 525.5288 148" width="333" height="93.77982709986587" x="83.5px" y="203.1101px" xmlns="http://www.w3.org/2000/svg" xmlns:xlink="http://www.w3.org/1999/xlink" preserveAspectRatio="none"><defs></defs><style>.aIptOCySncolors-3 {fill:#FF3737;fill-opacity:1;}.aIptOCySncolors-4 {fill:#B15400;fill-opacity:1;}.aIptOCySncolors-5 {fill:#FF8484;fill-opacity:1;}.aIptOCySncolors-6 {fill:#E74949;fill-opacity:1;}.aIptOCySncolors-7 {fill:#FDB3B3;fill-opacity:1;}.background {fill:#FFA569;fill-opacity:1;}.companyName {fill:#FFFFFF;fill-opacity:1;}.icon3 {fill:#393939;fill-opacity:1;}.icon3-str {stroke:#393939;stroke-opacity:1;}.shape {fill:#FC924B;fill-opacity:1;}.shapeStroke-str {stroke:#FFFFFF;stroke-opacity:1;}.text {fill:#FFFFFF;fill-opacity:1;}</style><g opacity="1" transform="rotate(0 2014.7047 1242.8904)">
<svg width="148.0004" height="148" x="2014.7047" y="1242.8904" version="1.1" preserveAspectRatio="none" viewBox="0 0 148.0004 148">
  <defs><rect x="0" y="0" width="148.0004" height="148" rx="10px" ry="10px" id="id-5kldYRpCP1720752620610"></rect></defs><use class="companyName shapeStroke-str" style="stroke-width:0;" xlink:href="#id-5kldYRpCP1720752620610"></use>
</svg>
</g><g opacity="1" transform="rotate(0 2029.7054 1257.8904)">
<svg width="117.9991" height="118" x="2029.7054" y="1257.8904" version="1.1" preserveAspectRatio="none" viewBox="20 19.999515533447266 159.9993896484375 160.00048828125">
  <g transform="matrix(1 0 0 1 0 0)"><g><path d="M97.648 102.445l64.498 43.182C147.743 167.089 123.516 180 97.648 180 55.052 180 20 144.991 20 102.446a77.496 77.496 0 0 1 13.443-43.615l64.205 43.614z" data-color="1" class="background"></path><path d="M99.17 103.358l34.399 23.03A41.46 41.46 0 0 1 99.17 144.72c-22.718 0-41.413-18.672-41.413-41.362a41.33 41.33 0 0 1 7.169-23.261c.001-.001 34.244 23.261 34.244 23.261z" data-color="2" class="icon3"></path><path d="M67.246 73.958c13.335-18.469 39.015-23.163 58.036-10.327s24.242 38.384 12.062 57.633l29.329 19.793c24.025-35.513 14.676-83.753-20.88-107.748S61.939 18.652 37.917 54.165l29.329 19.793z" data-color="3" class="shape"></path></g></g>
</svg>
</g><g opacity="1" transform="rotate(0 2186.7051 1362.8904)">
<svg width="257.3795" height="28" x="2186.7051" y="1362.8904" version="1.1" preserveAspectRatio="none" viewBox="3.28 -30.88 357.84000000000003 38.92">
  <g transform="matrix(1 0 0 1 0 0)" class="text"><path id="id-6izo4zJp16" d="M8.04-18.24Q10.20-21.60 15.64-21.60L15.64-21.60L15.64-16.84Q15-16.96 14.48-16.96L14.48-16.96Q11.56-16.96 9.92-15.26Q8.28-13.56 8.28-10.36L8.28-10.36L8.28 0L3.28 0L3.28-21.36L8.04-21.36L8.04-18.24Z M40.96-10.56Q40.96-10.04 40.88-9.08L40.88-9.08L24.12-9.08Q24.56-6.72 26.42-5.34Q28.28-3.96 31.04-3.96L31.04-3.96Q34.56-3.96 36.84-6.28L36.84-6.28L39.52-3.20Q38.08-1.48 35.88-0.60Q33.68 0.28 30.92 0.28L30.92 0.28Q27.40 0.28 24.72-1.12Q22.04-2.52 20.58-5.02Q19.12-7.52 19.12-10.68L19.12-10.68Q19.12-13.80 20.54-16.30Q21.96-18.80 24.48-20.20Q27-21.60 30.16-21.60L30.16-21.60Q33.28-21.60 35.74-20.22Q38.20-18.84 39.58-16.34Q40.96-13.84 40.96-10.56L40.96-10.56ZM30.16-17.60Q27.76-17.60 26.10-16.18Q24.44-14.76 24.08-12.40L24.08-12.40L36.20-12.40Q35.88-14.72 34.24-16.16Q32.60-17.60 30.16-17.60L30.16-17.60Z M54.52-21.60Q59.24-21.60 61.74-19.34Q64.24-17.08 64.24-12.52L64.24-12.52L64.24 0L59.52 0L59.52-2.60Q58.60-1.20 56.90-0.46Q55.20 0.28 52.80 0.28L52.80 0.28Q50.40 0.28 48.60-0.54Q46.80-1.36 45.82-2.82Q44.84-4.28 44.84-6.12L44.84-6.12Q44.84-9 46.98-10.74Q49.12-12.48 53.72-12.48L53.72-12.48L59.24-12.48L59.24-12.80Q59.24-15.04 57.90-16.24Q56.56-17.44 53.92-17.44L53.92-17.44Q52.12-17.44 50.38-16.88Q48.64-16.32 47.44-15.32L47.44-15.32L45.48-18.96Q47.16-20.24 49.52-20.92Q51.88-21.60 54.52-21.60L54.52-21.60ZM53.84-3.36Q55.72-3.36 57.18-4.22Q58.64-5.08 59.24-6.68L59.24-6.68L59.24-9.16L54.08-9.16Q49.76-9.16 49.76-6.32L49.76-6.32Q49.76-4.96 50.84-4.16Q51.92-3.36 53.84-3.36L53.84-3.36Z M87.96-29.68L92.96-29.68L92.96 0L88.16 0L88.16-2.76Q86.92-1.24 85.10-0.48Q83.28 0.28 81.08 0.28L81.08 0.28Q78.00 0.28 75.54-1.08Q73.08-2.44 71.68-4.94Q70.28-7.44 70.28-10.68L70.28-10.68Q70.28-13.92 71.68-16.40Q73.08-18.88 75.54-20.24Q78.00-21.60 81.08-21.60L81.08-21.60Q83.20-21.60 84.96-20.88Q86.72-20.16 87.96-18.72L87.96-18.72L87.96-29.68ZM81.68-4Q83.48-4 84.92-4.82Q86.36-5.64 87.20-7.16Q88.04-8.68 88.04-10.68L88.04-10.68Q88.04-12.68 87.20-14.20Q86.36-15.72 84.92-16.54Q83.48-17.36 81.68-17.36L81.68-17.36Q79.88-17.36 78.44-16.54Q77.00-15.72 76.16-14.20Q75.32-12.68 75.32-10.68L75.32-10.68Q75.32-8.68 76.16-7.16Q77.00-5.64 78.44-4.82Q79.88-4 81.68-4L81.68-4Z M100.72 0L100.72-21.36L105.72-21.36L105.72 0L100.72 0ZM103.24-24.88Q101.88-24.88 100.96-25.74Q100.04-26.60 100.04-27.88L100.04-27.88Q100.04-29.16 100.96-30.02Q101.88-30.88 103.24-30.88L103.24-30.88Q104.60-30.88 105.52-30.06Q106.44-29.24 106.44-28L106.44-28Q106.44-26.68 105.54-25.78Q104.64-24.88 103.24-24.88L103.24-24.88Z M125.60-21.60Q129.64-21.60 132.08-19.24Q134.52-16.88 134.52-12.24L134.52-12.24L134.52 0L129.52 0L129.52-11.60Q129.52-14.40 128.20-15.82Q126.88-17.24 124.44-17.24L124.44-17.24Q121.68-17.24 120.08-15.58Q118.48-13.92 118.48-10.80L118.48-10.80L118.48 0L113.48 0L113.48-21.36L118.24-21.36L118.24-18.60Q119.48-20.08 121.36-20.84Q123.24-21.60 125.60-21.60L125.60-21.60Z M158.72-21.36L163.48-21.36L163.48-3.24Q163.48 8.04 151.96 8.04L151.96 8.04Q148.88 8.04 146.12 7.26Q143.36 6.48 141.56 5L141.56 5L143.80 1.24Q145.20 2.40 147.34 3.10Q149.48 3.80 151.68 3.80L151.68 3.80Q155.20 3.80 156.84 2.20Q158.48 0.60 158.48-2.68L158.48-2.68L158.48-3.80Q157.20-2.40 155.36-1.68Q153.52-0.96 151.32-0.96L151.32-0.96Q148.28-0.96 145.82-2.26Q143.36-3.56 141.94-5.92Q140.52-8.28 140.52-11.32L140.52-11.32Q140.52-14.36 141.94-16.70Q143.36-19.04 145.82-20.32Q148.28-21.60 151.32-21.60L151.32-21.60Q153.64-21.60 155.54-20.84Q157.44-20.08 158.72-18.52L158.72-18.52L158.72-21.36ZM152.08-5.20Q154.92-5.20 156.74-6.90Q158.56-8.60 158.56-11.32L158.56-11.32Q158.56-14 156.74-15.68Q154.92-17.36 152.08-17.36L152.08-17.36Q149.20-17.36 147.38-15.68Q145.56-14 145.56-11.32L145.56-11.32Q145.56-8.60 147.38-6.90Q149.20-5.20 152.08-5.20L152.08-5.20Z M183.48 0L183.48-21.36L188.48-21.36L188.48 0L183.48 0ZM186.00-24.88Q184.64-24.88 183.72-25.74Q182.80-26.60 182.80-27.88L182.80-27.88Q182.80-29.16 183.72-30.02Q184.64-30.88 186.00-30.88L186.00-30.88Q187.36-30.88 188.28-30.06Q189.20-29.24 189.20-28L189.20-28Q189.20-26.68 188.30-25.78Q187.40-24.88 186.00-24.88L186.00-24.88Z M202.84 0.28Q200.24 0.28 197.76-0.40Q195.28-1.08 193.80-2.12L193.80-2.12L195.72-5.92Q197.16-4.96 199.18-4.38Q201.20-3.80 203.16-3.80L203.16-3.80Q207.64-3.80 207.64-6.16L207.64-6.16Q207.64-7.28 206.50-7.72Q205.36-8.16 202.84-8.56L202.84-8.56Q200.20-8.96 198.54-9.48Q196.88-10 195.66-11.30Q194.44-12.60 194.44-14.92L194.44-14.92Q194.44-17.96 196.98-19.78Q199.52-21.60 203.84-21.60L203.84-21.60Q206.04-21.60 208.24-21.10Q210.44-20.60 211.84-19.76L211.84-19.76L209.92-15.96Q207.20-17.56 203.80-17.56L203.80-17.56Q201.60-17.56 200.46-16.90Q199.32-16.24 199.32-15.16L199.32-15.16Q199.32-13.96 200.54-13.46Q201.76-12.96 204.32-12.52L204.32-12.52Q206.88-12.12 208.52-11.60Q210.16-11.08 211.34-9.84Q212.52-8.60 212.52-6.32L212.52-6.32Q212.52-3.32 209.92-1.52Q207.32 0.28 202.84 0.28L202.84 0.28Z M242.12-21.60Q245.24-21.60 247.70-20.24Q250.16-18.88 251.56-16.40Q252.96-13.92 252.96-10.68L252.96-10.68Q252.96-7.44 251.56-4.94Q250.16-2.44 247.70-1.08Q245.24 0.28 242.12 0.28L242.12 0.28Q237.80 0.28 235.28-2.60L235.28-2.60L235.28 7.76L230.28 7.76L230.28-21.36L235.04-21.36L235.04-18.56Q236.28-20.08 238.10-20.84Q239.92-21.60 242.12-21.60L242.12-21.60ZM241.56-4Q244.32-4 246.10-5.84Q247.88-7.68 247.88-10.68L247.88-10.68Q247.88-13.68 246.10-15.52Q244.32-17.36 241.56-17.36L241.56-17.36Q239.76-17.36 238.32-16.54Q236.88-15.72 236.04-14.20Q235.20-12.68 235.20-10.68L235.20-10.68Q235.20-8.68 236.04-7.16Q236.88-5.64 238.32-4.82Q239.76-4 241.56-4L241.56-4Z M268.52 0.28Q265.28 0.28 262.68-1.12Q260.08-2.52 258.62-5.02Q257.16-7.52 257.16-10.68L257.16-10.68Q257.16-13.84 258.62-16.32Q260.08-18.80 262.68-20.20Q265.28-21.60 268.52-21.60L268.52-21.60Q271.80-21.60 274.40-20.20Q277.00-18.80 278.46-16.32Q279.92-13.84 279.92-10.68L279.92-10.68Q279.92-7.52 278.46-5.02Q277.00-2.52 274.40-1.12Q271.80 0.28 268.52 0.28L268.52 0.28ZM268.52-4Q271.28-4 273.08-5.84Q274.88-7.68 274.88-10.68L274.88-10.68Q274.88-13.68 273.08-15.52Q271.28-17.36 268.52-17.36L268.52-17.36Q265.76-17.36 263.98-15.52Q262.20-13.68 262.20-10.68L262.20-10.68Q262.20-7.68 263.98-5.84Q265.76-4 268.52-4L268.52-4Z M314.20-21.36L318.64-21.36L310.76 0L305.96 0L300.44-14.72L294.84 0L290.04 0L282.20-21.36L286.92-21.36L292.56-5.60L298.44-21.36L302.64-21.36L308.40-5.52L314.20-21.36Z M342.76-10.56Q342.76-10.04 342.68-9.08L342.68-9.08L325.92-9.08Q326.36-6.72 328.22-5.34Q330.08-3.96 332.84-3.96L332.84-3.96Q336.36-3.96 338.64-6.28L338.64-6.28L341.32-3.20Q339.88-1.48 337.68-0.60Q335.48 0.28 332.72 0.28L332.72 0.28Q329.20 0.28 326.52-1.12Q323.84-2.52 322.38-5.02Q320.92-7.52 320.92-10.68L320.92-10.68Q320.92-13.80 322.34-16.30Q323.76-18.80 326.28-20.20Q328.80-21.60 331.96-21.60L331.96-21.60Q335.08-21.60 337.54-20.22Q340.00-18.84 341.38-16.34Q342.76-13.84 342.76-10.56L342.76-10.56ZM331.96-17.60Q329.56-17.60 327.90-16.18Q326.24-14.76 325.88-12.40L325.88-12.40L338.00-12.40Q337.68-14.72 336.04-16.16Q334.40-17.60 331.96-17.60L331.96-17.60Z M353.52-18.24Q355.68-21.60 361.12-21.60L361.12-21.60L361.12-16.84Q360.48-16.96 359.96-16.96L359.96-16.96Q357.04-16.96 355.40-15.26Q353.76-13.56 353.76-10.36L353.76-10.36L353.76 0L348.76 0L348.76-21.36L353.52-21.36L353.52-18.24Z"/></g>
</svg>
</g><g opacity="1" transform="rotate(0 2186.7051 1242.8904)">
<svg width="353.5284" height="100" x="2186.7051" y="1242.8904" version="1.1" preserveAspectRatio="none" viewBox="2.44 -29.68 106.2 30.04">
  <g transform="matrix(1 0 0 1 0 0)" class="companyName"><path id="id-D6z1nYkh4" d="M16.08-22.04Q19.04-22.04 21.46-20.68Q23.88-19.32 25.30-16.78Q26.72-14.24 26.72-10.88L26.72-10.88Q26.72-7.52 25.30-4.96Q23.88-2.40 21.46-1.02Q19.04 0.36 16.08 0.36L16.08 0.36Q11.80 0.36 9.68-2.16L9.68-2.16L9.68 0L2.44 0L2.44-29.68L10.04-29.68L10.04-19.80Q12.24-22.04 16.08-22.04L16.08-22.04ZM14.48-5.68Q16.48-5.68 17.76-7.06Q19.04-8.44 19.04-10.88L19.04-10.88Q19.04-13.28 17.76-14.64Q16.48-16 14.48-16L14.48-16Q12.48-16 11.20-14.64Q9.92-13.28 9.92-10.88L9.92-10.88Q9.92-8.44 11.20-7.06Q12.48-5.68 14.48-5.68L14.48-5.68Z M41.12 0.36Q37.64 0.36 34.84-1.08Q32.04-2.52 30.46-5.08Q28.88-7.64 28.88-10.88L28.88-10.88Q28.88-14.08 30.46-16.64Q32.04-19.20 34.82-20.62Q37.60-22.04 41.12-22.04L41.12-22.04Q44.64-22.04 47.44-20.62Q50.24-19.20 51.80-16.66Q53.36-14.12 53.36-10.88L53.36-10.88Q53.36-7.64 51.80-5.08Q50.24-2.52 47.44-1.08Q44.64 0.36 41.12 0.36L41.12 0.36ZM41.12-5.68Q43.12-5.68 44.40-7.06Q45.68-8.44 45.68-10.88L45.68-10.88Q45.68-13.28 44.40-14.64Q43.12-16 41.12-16L41.12-16Q39.12-16 37.84-14.64Q36.56-13.28 36.56-10.88L36.56-10.88Q36.56-8.44 37.84-7.06Q39.12-5.68 41.12-5.68L41.12-5.68Z M67.76 0.36Q64.28 0.36 61.48-1.08Q58.68-2.52 57.10-5.08Q55.52-7.64 55.52-10.88L55.52-10.88Q55.52-14.08 57.10-16.64Q58.68-19.20 61.46-20.62Q64.24-22.04 67.76-22.04L67.76-22.04Q71.28-22.04 74.08-20.62Q76.88-19.20 78.44-16.66Q80-14.12 80-10.88L80-10.88Q80-7.64 78.44-5.08Q76.88-2.52 74.08-1.08Q71.28 0.36 67.76 0.36L67.76 0.36ZM67.76-5.68Q69.76-5.68 71.04-7.06Q72.32-8.44 72.32-10.88L72.32-10.88Q72.32-13.28 71.04-14.64Q69.76-16 67.76-16L67.76-16Q65.76-16 64.48-14.64Q63.20-13.28 63.20-10.88L63.20-10.88Q63.20-8.44 64.48-7.06Q65.76-5.68 67.76-5.68L67.76-5.68Z M99.44 0L93.36-7.60L91.12-5.32L91.12 0L83.52 0L83.52-29.68L91.12-29.68L91.12-14.12L98.88-21.68L107.88-21.68L98.88-12.40L108.64 0L99.44 0Z"/></g>
</svg>
</g></svg></svg>